<svg width="320" height="320" viewBox="0 0 320 320" fill="none" xmlns="http://www.w3.org/2000/svg" role="img" aria-labelledby="title desc">
  <title id="title">She Can Foundation mark</title>
  <desc id="desc">Orange square with a dark navy badge and She Can Foundation text.</desc>
  <rect width="320" height="320" rx="42" fill="#FF4D2D"/>
  <path d="M150.7 50.5c7.2-5.1 16.9-5.1 24.1 0l13.2 9.3c4.3 3 9.7 4.1 14.9 3l15.8-3.4c8.6-1.8 17.4 2.3 21.5 10.1l7.5 14.3c2.5 4.7 6.7 8.2 11.8 9.7l15.5 4.6c8.4 2.5 14.2 10.3 14.1 19.1l-.3 16.2c-.1 5.3 1.9 10.4 5.6 14.2l11.2 11.6c6.1 6.3 7.2 15.9 2.8 23.5l-8.1 14c-2.7 4.6-3.4 10.1-2 15.2l4.2 15.6c2.3 8.5-1.4 17.5-9 22l-14 8.1c-4.6 2.7-7.8 7.1-9 12.3l-3.6 15.7c-2 8.6-9.4 14.8-18.2 15.2l-16.1.8c-5.3.3-10.2 2.7-13.7 6.7l-10.6 12.2c-5.8 6.7-15.3 8.6-23.2 4.7l-14.5-7.1c-4.8-2.3-10.3-2.6-15.2-.6l-15 6c-8.2 3.3-17.5.7-22.7-6.4l-9.6-13c-3.1-4.3-7.8-7.1-13.1-7.8l-16-2.1c-8.7-1.1-15.8-7.8-17.3-16.5l-2.7-15.9c-.9-5.2-3.9-9.8-8.3-12.8l-13.4-9c-7.3-4.9-10.2-14.2-7.2-22.5l5.6-15.1c1.8-5 1.3-10.5-1.2-15.2l-7.7-14.2c-4.2-7.7-2.7-17.3 3.7-23.4l11.7-11.1c3.9-3.7 6.1-8.7 6.2-14l.3-16.2c.2-8.8 6.2-16.4 14.7-18.6l15.6-4.1c5.1-1.4 9.5-4.7 12.1-9.3l8-14c4.4-7.7 13.3-11.4 21.9-9.2l15.6 4c5.1 1.3 10.6.4 15-2.6l13.3-9.1Z" fill="#020A1F"/>
  <text x="160" y="143" text-anchor="middle" font-family="Arial, Helvetica, sans-serif" font-size="57" font-weight="800" fill="#FFFDF7">She</text>
  <text x="160" y="193" text-anchor="middle" font-family="Georgia, serif" font-size="45" font-style="italic" fill="#FFFDF7">Can!</text>
  <text x="160" y="220" text-anchor="middle" font-family="Arial, Helvetica, sans-serif" font-size="18" font-weight="800" letter-spacing="1.4" fill="#FF6A43">Foundation</text>
</svg>
